<svg id="visual" viewBox="0 0 900 600" width="900" height="600" xmlns="http://www.w3.org/2000/svg" xmlns:xlink="http://www.w3.org/1999/xlink" version="1.1"><rect x="0" y="0" width="900" height="600" fill="#f5faff"></rect><path d="M0 415L21.5 406.3C43 397.7 86 380.3 128.8 380.3C171.7 380.3 214.3 397.7 257.2 406.3C300 415 343 415 385.8 406.2C428.7 397.3 471.3 379.7 514.2 376.2C557 372.7 600 383.3 642.8 388.3C685.7 393.3 728.3 392.7 771.2 400.3C814 408 857 424 878.5 432L900 440L900 601L878.5 601C857 601 814 601 771.2 601C728.3 601 685.7 601 642.8 601C600 601 557 601 514.2 601C471.3 601 428.7 601 385.8 601C343 601 300 601 257.2 601C214.3 601 171.7 601 128.8 601C86 601 43 601 21.5 601L0 601Z" fill="#9651b6"></path><path d="M0 449L21.5 443.3C43 437.7 86 426.3 128.8 419.7C171.7 413 214.3 411 257.2 411.3C300 411.7 343 414.3 385.8 412.8C428.7 411.3 471.3 405.7 514.2 415.2C557 424.7 600 449.3 642.8 454.2C685.7 459 728.3 444 771.2 434.7C814 425.3 857 421.7 878.5 419.8L900 418L900 601L878.5 601C857 601 814 601 771.2 601C728.3 601 685.7 601 642.8 601C600 601 557 601 514.2 601C471.3 601 428.7 601 385.8 601C343 601 300 601 257.2 601C214.3 601 171.7 601 128.8 601C86 601 43 601 21.5 601L0 601Z" fill="#8539a8"></path><path d="M0 437L21.5 449C43 461 86 485 128.8 487.8C171.7 490.7 214.3 472.3 257.2 465.2C300 458 343 462 385.8 470.2C428.7 478.3 471.3 490.7 514.2 493.2C557 495.7 600 488.3 642.8 488.8C685.7 489.3 728.3 497.7 771.2 496.2C814 494.7 857 483.3 878.5 477.7L900 472L900 601L878.5 601C857 601 814 601 771.2 601C728.3 601 685.7 601 642.8 601C600 601 557 601 514.2 601C471.3 601 428.7 601 385.8 601C343 601 300 601 257.2 601C214.3 601 171.7 601 128.8 601C86 601 43 601 21.5 601L0 601Z" fill="#731e9a"></path><path d="M0 536L21.5 532.3C43 528.7 86 521.3 128.8 512.8C171.7 504.3 214.3 494.7 257.2 495.2C300 495.7 343 506.3 385.8 508.7C428.7 511 471.3 505 514.2 509.2C557 513.3 600 527.7 642.8 526.7C685.7 525.7 728.3 509.3 771.2 503.5C814 497.7 857 502.3 878.5 504.7L900 507L900 601L878.5 601C857 601 814 601 771.2 601C728.3 601 685.7 601 642.8 601C600 601 557 601 514.2 601C471.3 601 428.7 601 385.8 601C343 601 300 601 257.2 601C214.3 601 171.7 601 128.8 601C86 601 43 601 21.5 601L0 601Z" fill="#631c85"></path><path d="M0 544L21.5 546.3C43 548.7 86 553.3 128.8 553.5C171.7 553.7 214.3 549.3 257.2 549C300 548.7 343 552.3 385.8 550.5C428.7 548.7 471.3 541.3 514.2 543C557 544.7 600 555.3 642.8 559C685.7 562.7 728.3 559.3 771.2 558C814 556.7 857 557.3 878.5 557.7L900 558L900 601L878.5 601C857 601 814 601 771.2 601C728.3 601 685.7 601 642.8 601C600 601 557 601 514.2 601C471.3 601 428.7 601 385.8 601C343 601 300 601 257.2 601C214.3 601 171.7 601 128.8 601C86 601 43 601 21.5 601L0 601Z" fill="#541971"></path></svg>